{
    "asset" : {
        "generator" : "Khronos glTF Blender I/O v1.3.48",
        "version" : "2.0"
    },
    "scene" : 0,
    "scenes" : [
        {
            "name" : "Scene",
            "nodes" : [
                0,
                1,
                2,
                3
            ]
        }
    ],
    "nodes" : [
        {
            "mesh" : 0,
            "name" : "Torus",
            "rotation" : [
                -0.0360042043030262,
                0.3197724521160126,
                -0.1059350073337555,
                0.9408650398254395
            ],
            "scale" : [
                16.334028244018555,
                16.334028244018555,
                16.334028244018555
            ],
            "translation" : [
                718.4478759765625,
                -20.46146011352539,
                3.708730936050415
            ]
        },
        {
            "mesh" : 1,
            "name" : "\u041a\u0443\u0431.001",
            "rotation" : [
                0,
                0,
                -0.6897327899932861,
                0.7240639925003052
            ],
            "scale" : [
                11.170083045959473,
                11.7198486328125,
                11.16874885559082
            ]
        },
        {
            "name" : "\u041a\u0430\u043c\u0435\u0440\u0430",
            "rotation" : [
                0.4706425070762634,
                0.5264719724655151,
                -0.4929105341434479,
                0.5082933306694031
            ],
            "translation" : [
                473.5393371582031,
                7.220484733581543,
                0
            ]
        },
        {
            "mesh" : 2,
            "name" : "\u041a\u0443\u0431",
            "scale" : [
                13.637916564941406,
                17.418092727661133,
                16.252593994140625
            ]
        }
    ],
    "animations" : [
        {
            "channels" : [
                {
                    "sampler" : 0,
                    "target" : {
                        "node" : 1,
                        "path" : "translation"
                    }
                },
                {
                    "sampler" : 1,
                    "target" : {
                        "node" : 1,
                        "path" : "rotation"
                    }
                },
                {
                    "sampler" : 2,
                    "target" : {
                        "node" : 1,
                        "path" : "scale"
                    }
                }
            ],
            "name" : "\u041a\u0443\u0431.001Action",
            "samplers" : [
                {
                    "input" : 12,
                    "interpolation" : "LINEAR",
                    "output" : 13
                },
                {
                    "input" : 12,
                    "interpolation" : "LINEAR",
                    "output" : 14
                },
                {
                    "input" : 12,
                    "interpolation" : "LINEAR",
                    "output" : 15
                }
            ]
        },
        {
            "channels" : [
                {
                    "sampler" : 0,
                    "target" : {
                        "node" : 2,
                        "path" : "translation"
                    }
                },
                {
                    "sampler" : 1,
                    "target" : {
                        "node" : 2,
                        "path" : "rotation"
                    }
                },
                {
                    "sampler" : 2,
                    "target" : {
                        "node" : 2,
                        "path" : "scale"
                    }
                }
            ],
            "name" : "\u041a\u0430\u043c\u0435\u0440\u0430Action",
            "samplers" : [
                {
                    "input" : 16,
                    "interpolation" : "STEP",
                    "output" : 17
                },
                {
                    "input" : 16,
                    "interpolation" : "STEP",
                    "output" : 18
                },
                {
                    "input" : 16,
                    "interpolation" : "STEP",
                    "output" : 19
                }
            ]
        }
    ],
    "materials" : [
        {
            "doubleSided" : true,
            "emissiveFactor" : [
                0,
                0,
                0
            ],
            "name" : "\u041c\u0430\u0442\u0435\u0440\u0438\u0430\u043b.004",
            "pbrMetallicRoughness" : {
                "baseColorFactor" : [
                    0.800000011920929,
                    0.800000011920929,
                    0.800000011920929,
                    1
                ],
                "metallicFactor" : 0,
                "roughnessFactor" : 0.5
            }
        },
        {
            "doubleSided" : true,
            "emissiveFactor" : [
                0,
                0,
                0
            ],
            "name" : "\u041c\u0430\u0442\u0435\u0440\u0438\u0430\u043b",
            "pbrMetallicRoughness" : {
                "baseColorFactor" : [
                    0.015276342630386353,
                    0.2597988247871399,
                    0,
                    1
                ],
                "metallicFactor" : 0,
                "roughnessFactor" : 0.5
            }
        },
        {
            "doubleSided" : true,
            "emissiveFactor" : [
                0,
                0,
                0
            ],
            "name" : "\u041c\u0430\u0442\u0435\u0440\u0438\u0430\u043b.009",
            "pbrMetallicRoughness" : {
                "baseColorFactor" : [
                    0.4762044847011566,
                    0.26923954486846924,
                    0.8000000715255737,
                    1
                ],
                "metallicFactor" : 0,
                "roughnessFactor" : 0.5
            }
        }
    ],
    "meshes" : [
        {
            "name" : "Torus",
            "primitives" : [
                {
                    "attributes" : {
                        "POSITION" : 0,
                        "NORMAL" : 1,
                        "TEXCOORD_0" : 2
                    },
                    "indices" : 3,
                    "material" : 0
                }
            ]
        },
        {
            "name" : "\u041a\u0443\u0431.002",
            "primitives" : [
                {
                    "attributes" : {
                        "POSITION" : 4,
                        "NORMAL" : 5,
                        "TEXCOORD_0" : 6
                    },
                    "indices" : 7,
                    "material" : 1
                }
            ]
        },
        {
            "name" : "\u041a\u0443\u0431.003",
            "primitives" : [
                {
                    "attributes" : {
                        "POSITION" : 8,
                        "NORMAL" : 9,
                        "TEXCOORD_0" : 10
                    },
                    "indices" : 11,
                    "material" : 2
                }
            ]
        }
    ],
    "accessors" : [
        {
            "bufferView" : 0,
            "componentType" : 5126,
            "count" : 6640,
            "max" : [
                2.250596523284912,
                0.3649018704891205,
                2.2505953311920166
            ],
            "min" : [
                -2.250596761703491,
                -0.36489903926849365,
                -2.2505946159362793
            ],
            "type" : "VEC3"
        },
        {
            "bufferView" : 1,
            "componentType" : 5126,
            "count" : 6640,
            "type" : "VEC3"
        },
        {
            "bufferView" : 2,
            "componentType" : 5126,
            "count" : 6640,
            "type" : "VEC2"
        },
        {
            "bufferView" : 3,
            "componentType" : 5123,
            "count" : 17640,
            "type" : "SCALAR"
        },
        {
            "bufferView" : 4,
            "componentType" : 5126,
            "count" : 1905,
            "max" : [
                29.540542602539062,
                104.5462417602539,
                43.848297119140625
            ],
            "min" : [
                -27.796911239624023,
                -105.78008270263672,
                -43.74031066894531
            ],
            "type" : "VEC3"
        },
        {
            "bufferView" : 5,
            "componentType" : 5126,
            "count" : 1905,
            "type" : "VEC3"
        },
        {
            "bufferView" : 6,
            "componentType" : 5126,
            "count" : 1905,
            "type" : "VEC2"
        },
        {
            "bufferView" : 7,
            "componentType" : 5123,
            "count" : 16353,
            "type" : "SCALAR"
        },
        {
            "bufferView" : 8,
            "componentType" : 5126,
            "count" : 1536,
            "max" : [
                46.60490036010742,
                11.41572093963623,
                11.41572093963623
            ],
            "min" : [
                -9.396307945251465,
                -11.41572093963623,
                -11.41572093963623
            ],
            "type" : "VEC3"
        },
        {
            "bufferView" : 9,
            "componentType" : 5126,
            "count" : 1536,
            "type" : "VEC3"
        },
        {
            "bufferView" : 10,
            "componentType" : 5126,
            "count" : 1536,
            "type" : "VEC2"
        },
        {
            "bufferView" : 11,
            "componentType" : 5123,
            "count" : 2304,
            "type" : "SCALAR"
        },
        {
            "bufferView" : 12,
            "componentType" : 5126,
            "count" : 111,
            "max" : [
                4.583333333333333
            ],
            "min" : [
                0
            ],
            "type" : "SCALAR"
        },
        {
            "bufferView" : 13,
            "componentType" : 5126,
            "count" : 111,
            "type" : "VEC3"
        },
        {
            "bufferView" : 14,
            "componentType" : 5126,
            "count" : 111,
            "type" : "VEC4"
        },
        {
            "bufferView" : 15,
            "componentType" : 5126,
            "count" : 111,
            "type" : "VEC3"
        },
        {
            "bufferView" : 16,
            "componentType" : 5126,
            "count" : 1,
            "max" : [
                0
            ],
            "min" : [
                0
            ],
            "type" : "SCALAR"
        },
        {
            "bufferView" : 17,
            "componentType" : 5126,
            "count" : 1,
            "type" : "VEC3"
        },
        {
            "bufferView" : 18,
            "componentType" : 5126,
            "count" : 1,
            "type" : "VEC4"
        },
        {
            "bufferView" : 19,
            "componentType" : 5126,
            "count" : 1,
            "type" : "VEC3"
        }
    ],
    "bufferViews" : [
        {
            "buffer" : 0,
            "byteLength" : 79680,
            "byteOffset" : 0
        },
        {
            "buffer" : 0,
            "byteLength" : 79680,
            "byteOffset" : 79680
        },
        {
            "buffer" : 0,
            "byteLength" : 53120,
            "byteOffset" : 159360
        },
        {
            "buffer" : 0,
            "byteLength" : 35280,
            "byteOffset" : 212480
        },
        {
            "buffer" : 0,
            "byteLength" : 22860,
            "byteOffset" : 247760
        },
        {
            "buffer" : 0,
            "byteLength" : 22860,
            "byteOffset" : 270620
        },
        {
            "buffer" : 0,
            "byteLength" : 15240,
            "byteOffset" : 293480
        },
        {
            "buffer" : 0,
            "byteLength" : 32706,
            "byteOffset" : 308720
        },
        {
            "buffer" : 0,
            "byteLength" : 18432,
            "byteOffset" : 341428
        },
        {
            "buffer" : 0,
            "byteLength" : 18432,
            "byteOffset" : 359860
        },
        {
            "buffer" : 0,
            "byteLength" : 12288,
            "byteOffset" : 378292
        },
        {
            "buffer" : 0,
            "byteLength" : 4608,
            "byteOffset" : 390580
        },
        {
            "buffer" : 0,
            "byteLength" : 444,
            "byteOffset" : 395188
        },
        {
            "buffer" : 0,
            "byteLength" : 1332,
            "byteOffset" : 395632
        },
        {
            "buffer" : 0,
            "byteLength" : 1776,
            "byteOffset" : 396964
        },
        {
            "buffer" : 0,
            "byteLength" : 1332,
            "byteOffset" : 398740
        },
        {
            "buffer" : 0,
            "byteLength" : 4,
            "byteOffset" : 400072
        },
        {
            "buffer" : 0,
            "byteLength" : 12,
            "byteOffset" : 400076
        },
        {
            "buffer" : 0,
            "byteLength" : 16,
            "byteOffset" : 400088
        },
        {
            "buffer" : 0,
            "byteLength" : 12,
            "byteOffset" : 400104
        }
    ],
    "buffers" : [
        {
            "byteLength" : 400116,
            "uri" : "tun.bin"
        }
    ]
}
